<svg width="156" height="156" viewBox="0 0 156 156" fill="none" xmlns="http://www.w3.org/2000/svg">
<path d="M11.1734 67.8627L2.47594 64.0585L9.70257 62.5736L3.79823 58.14L13.2522 58.5713L12.9623 59.8936L7.6661 59.6179L12.6088 63.3019L6.56302 64.511L11.4774 66.5404L11.1875 67.8627L11.1734 67.8627Z" fill="#772511"/>
<path d="M9.07299 48.6789L7.82847 51.9033L9.87908 52.6952L11.0882 49.5628L12.255 50.0082L11.0458 53.1407L13.5985 54.1236L14.843 50.8992L16.0097 51.3447L14.2914 55.8065L6.20213 52.6811L7.9204 48.2193L9.08713 48.6647L9.07299 48.6789Z" fill="#772511"/>
<path d="M11.7319 43.1775L18.3292 46.5787L17.7211 47.7525L11.1237 44.3513L10.2045 46.1191L9.09435 45.5463L11.5339 40.8299L12.644 41.4027L11.7248 43.1704L11.7319 43.1775Z" fill="#772511"/>
<path d="M16.8442 38.7298L18.9373 35.661L16.1088 33.7235L16.8584 32.6345L24.0143 37.5277L23.2648 38.6167L19.9696 36.3681L17.8766 39.4369L21.1717 41.6855L20.4222 42.7745L13.2663 37.8813L14.0158 36.7923L16.8442 38.7298Z" fill="#772511"/>
<path d="M23.7173 26.5109L21.4121 29.0848L23.0455 30.5485L25.28 28.0454L26.2133 28.8798L23.9789 31.3829L26.0154 33.2072L28.3205 30.6334L29.2539 31.4678L26.0648 35.0387L19.5948 29.2616L22.7768 25.6695L23.7102 26.5039L23.7173 26.5109Z" fill="#772511"/>
<path d="M26.5809 22.0068L30.0033 25.9525C30.3144 26.306 30.6963 26.7303 31.1912 26.9C31.6792 27.0626 32.4216 27.0273 32.9944 26.5252C33.5742 26.0161 33.7156 25.2949 33.6237 24.7928C33.5176 24.2766 33.1641 23.8382 32.8529 23.4847L29.4306 19.539L30.4276 18.6693L34.0762 22.8836C34.5288 23.4069 34.9672 24.1281 34.9389 25.1181C34.9177 25.7898 34.6773 26.6808 33.7863 27.4586C32.8954 28.2364 31.9691 28.3425 31.3044 28.2718C30.3286 28.1586 29.678 27.6212 29.2255 27.098L25.5768 22.8836L26.5809 22.021L26.5809 22.0068Z" fill="#772511"/>
<path d="M38.1423 15.6076C37.9656 15.4873 37.7676 15.4025 37.5201 15.3671C37.1736 15.3318 36.8766 15.4166 36.5726 15.6217C35.9008 16.0672 35.823 16.6965 36.12 17.1632C36.2614 17.3753 36.5938 17.7077 37.4847 17.5238L38.404 17.34C40.101 17.0006 40.9708 17.5167 41.5152 18.3441C42.4274 19.7229 42.0668 21.3139 40.7162 22.2119C39.8818 22.7635 39.1747 22.7776 38.5313 22.615C37.8595 22.4382 37.3645 22.0705 36.9968 21.6038L37.9302 20.6422C38.1636 21.0028 38.5242 21.2503 38.8424 21.3705C39.2242 21.4978 39.6343 21.4695 40.0727 21.1866C40.7445 20.7412 40.9425 19.9068 40.4617 19.1855C39.9738 18.4431 39.2101 18.5138 38.602 18.641L37.711 18.8107C36.9473 18.9522 35.7453 19.037 35.024 17.9481C34.3735 16.9723 34.522 15.5368 35.8796 14.6459C36.6645 14.1297 37.3009 14.1297 37.6544 14.1721C37.9656 14.2146 38.3333 14.3277 38.6939 14.5328L38.1494 15.6429L38.1423 15.6076Z" fill="#772511"/>
<path d="M53.1615 13.3165L49.732 14.7095L49.6401 17.0076L48.3107 17.545L48.8623 7.41924L56.1242 14.3842L54.7949 14.9216L53.1685 13.3236L53.1615 13.3165ZM52.1998 12.3549L49.9017 10.1133L49.7673 13.3448L52.1998 12.3549V12.3549Z" fill="#772511"/>
<path d="M62.6719 5.81398C61.5263 5.20587 60.6354 5.33315 60.1546 5.46043C58.3231 5.92005 57.4322 7.57468 57.8989 9.4273C58.3444 11.2021 59.9778 12.2557 61.7668 11.8102C62.7708 11.5557 63.4285 10.8415 63.7891 10.2688L64.1709 11.7961C63.4567 12.5103 62.6011 12.8568 62.0213 13.0123C60.494 13.3942 59.3626 12.9416 58.7545 12.6022C57.5453 11.9305 56.9019 10.9476 56.6119 9.76671C56.223 8.21815 56.5978 6.98071 57.1281 6.13925C57.7928 5.10687 58.7262 4.56947 59.8929 4.27956C60.6637 4.08864 61.4415 4.03207 62.29 4.31492L62.6719 5.82812L62.6719 5.81398Z" fill="#772511"/>
<path d="M71.7439 9.1729L68.0598 9.57595L67.3457 11.7609L65.9244 11.9094L69.2266 2.31396L74.3036 10.9972L72.8823 11.1457L71.7509 9.16583L71.7439 9.1729ZM71.0792 7.98496L69.4811 5.19896L68.4629 8.26781L71.0792 7.98496V7.98496Z" fill="#772511"/>
<path d="M78.624 2.39164C79.8261 2.43407 80.8797 2.5967 81.8131 3.34623C82.8384 4.17355 83.4041 5.46048 83.3546 6.89591C83.298 8.33841 82.6616 9.56878 81.4878 10.3325C80.4554 11.0113 79.4938 11.0961 78.2917 11.0537L76.5027 10.9901L76.8068 2.328L78.624 2.39164V2.39164ZM77.8674 9.79505L78.4402 9.81626C79.0907 9.84455 79.9887 9.82333 80.7666 9.28593C81.3817 8.8546 81.9969 8.04142 82.0323 6.86056C82.0747 5.71504 81.5585 4.80288 80.9504 4.32204C80.2221 3.74929 79.2958 3.67151 78.6594 3.64322L78.0866 3.62201L77.8674 9.79505Z" fill="#772511"/>
<path d="M91.9391 5.0291L88.5238 4.47048L88.1703 6.63423L91.4795 7.17163L91.2815 8.402L87.9723 7.86459L87.5268 10.5587L90.9421 11.1173L90.7441 12.3477L86.0207 11.5698L87.4207 3.01384L92.1442 3.79166L91.9462 5.02203L91.9391 5.0291Z" fill="#772511"/>
<path d="M93.2757 12.8004L97.8577 4.47065L98.678 11.8104L103.628 6.32327L102.341 15.6995L101.054 15.2894L101.81 10.0356L97.688 14.6247L97.0375 8.48702L94.5697 13.2034L93.2827 12.7933L93.2757 12.8004Z" fill="#772511"/>
<path d="M107.997 14.2993L107.623 8.62127L108.973 9.29302L109.228 13.2953L112.558 11.0679L113.909 11.7396L109.171 14.8933L107.509 18.2521L106.314 17.6652L107.976 14.3064L107.997 14.2993Z" fill="#772511"/>
</svg>
