<svg width="169" height="42" viewBox="0 0 169 42" fill="none" xmlns="http://www.w3.org/2000/svg">
<g opacity="0.3">
<path d="M5.43784 41.3734L6.34368 38.7519H10.2141L11.1199 41.3734H12.7257L9.14355 31.4366H7.40049L3.83203 41.3734H5.43784ZM6.77601 37.4892L8.23771 33.2482H8.30633L9.77489 37.4892H6.77601Z" fill="white"/>
<path d="M35.8472 34.6756H37.3706C37.0344 32.5414 35.3668 31.2993 33.2669 31.2993C30.6935 31.2993 28.7926 33.2277 28.7926 36.405C28.7926 39.5823 30.6798 41.5106 33.2669 41.5106C35.456 41.5106 37.055 40.1381 37.3706 38.1755L35.8472 38.1617C35.5864 39.4313 34.5296 40.1313 33.2806 40.1244C31.5719 40.1313 30.2955 38.8274 30.2886 36.405C30.2955 33.9962 31.565 32.6787 33.2806 32.6855C34.5433 32.6787 35.607 33.3924 35.8472 34.6756Z" fill="white"/>
<path d="M55.3864 41.3734L56.2922 38.7519H60.1627L61.0685 41.3734H62.6743L59.0921 31.4366H57.3491L53.7806 41.3734H55.3864ZM56.7246 37.4892L58.1863 33.2482H58.2549L59.7235 37.4892H56.7246Z" fill="white"/>
<path d="M82.7625 41.3734C85.7889 41.3734 87.5319 39.4931 87.5388 36.3912C87.5319 33.2963 85.7889 31.4366 82.8586 31.4366H79.5372V41.3734H82.7625ZM81.0469 40.0558V32.7542H82.7625C84.9311 32.7542 86.0428 34.0511 86.0428 36.3912C86.0428 38.7382 84.9311 40.0489 82.6802 40.0558H81.0469Z" fill="white"/>
<path d="M104.841 41.3734H111.127V40.0695H106.351V37.0363H110.743V35.7462H106.351V32.7404H111.072V31.4366H104.841V41.3734Z" fill="white"/>
<path d="M128.525 31.4366V41.3734H129.966V34.1815H130.048L132.972 41.3596H134.166L137.076 34.1953H137.172V41.3734H138.613V31.4366H136.774L133.631 39.1362H133.507L130.364 31.4366H128.525Z" fill="white"/>
<path d="M155.476 31.4366L159.072 37.4755V41.3734H160.581V37.4755L164.191 31.4366H162.475L159.881 35.9383H159.772L157.191 31.4366H155.476Z" fill="white"/>
<mask id="mask0_684_2" style="mask-type:alpha" maskUnits="userSpaceOnUse" x="0" y="0" width="169" height="22">
<rect width="168.178" height="21.465" fill="#D9D9D9"/>
</mask>
<g mask="url(#mask0_684_2)">
<path d="M14.2295 21.4294C13.4108 21.4294 12.73 21.2053 12.2043 20.7485C11.8768 20.4383 11.5579 19.9643 11.2132 19.2921L4.45656 6.2442V21.3346H0.000976562V3.30541C0.000976562 2.4436 0.345703 1.71967 1.01792 1.15949C1.68152 0.607929 2.60366 0.332149 3.74987 0.332149C5.50797 0.332149 6.73175 1.0216 7.39535 2.39189L14.1778 16.0344L21.081 2.36603C21.7704 0.987129 22.9856 0.289062 24.6834 0.289062C25.864 0.289062 26.7948 0.57346 27.4412 1.14226C28.1048 1.71967 28.4409 2.46945 28.4409 3.36574V21.3346H23.9853V6.26144L17.3924 19.1714C16.6512 20.671 15.5826 21.4294 14.2209 21.4294H14.2295Z" fill="white"/>
<path d="M51.5549 21.2408H39.6964C37.6539 21.2408 36.0337 20.8788 34.8788 20.1635C33.5689 19.3362 32.9053 18.1469 32.9053 16.6387V5.17658C32.9053 3.67702 33.4913 2.47048 34.6548 1.60867C35.7837 0.764087 37.3609 0.341797 39.3258 0.341797H51.5549V3.90109H40.7564C37.5505 3.90109 37.5505 5.36618 37.5505 5.84879V9.03751H50.7621V12.5537H37.5505V15.6993C37.5505 16.1906 37.5505 17.6901 40.7995 17.6901H51.5636V21.2494L51.5549 21.2408Z" fill="white"/>
<path d="M66.4814 21.2396H61.8449V3.78781H54.959V0.228516H73.4018V3.78781H66.4814V21.2396Z" fill="white"/>
<path d="M119.835 21.2403H107.977C105.934 21.2403 104.314 20.8784 103.159 20.163C101.849 19.3357 101.186 18.1464 101.186 16.6382V5.17609C101.186 3.67653 101.772 2.46999 102.935 1.60818C104.064 0.763599 105.641 0.341309 107.615 0.341309H119.844V3.9006H109.045C105.839 3.9006 105.839 5.36569 105.839 5.84831V9.03702H119.051V12.5532H105.839V15.6989C105.839 16.1901 105.839 17.6896 109.088 17.6896H119.852V21.2489L119.835 21.2403Z" fill="white"/>
<path d="M138.66 21.2398H132.325C131.067 21.2398 130.162 21.1795 129.559 21.0502C128.654 20.8778 127.827 20.5245 127.103 19.9815C126.293 19.3696 125.732 18.7147 125.457 18.0424C125.276 17.5598 125.189 16.8359 125.189 15.8103V0.289062H129.826V15.2674C129.826 16.2154 130.059 16.8618 130.533 17.172C131.041 17.5081 132.006 17.6805 133.403 17.6805H137.574C138.953 17.6805 139.909 17.5167 140.426 17.1893C140.9 16.8876 141.142 16.2671 141.142 15.3536V0.297676H145.778V15.819C145.778 16.7842 145.675 17.5167 145.477 18.0424C145.201 18.7577 144.666 19.4127 143.891 19.9815C143.124 20.5503 142.305 20.9209 141.452 21.0933C140.866 21.1967 139.952 21.2398 138.642 21.2398H138.66Z" fill="white"/>
<path d="M161.538 21.2398H149.662V17.6805H160.34C161.943 17.6805 162.943 17.3875 163.305 16.8014C163.391 16.6463 163.546 16.0775 163.546 14.2074C163.546 13.7678 163.546 12.4234 160.461 12.4234H156.16C154.333 12.4234 152.816 12.0701 151.636 11.3634C150.3 10.5619 149.619 9.45015 149.619 8.05401V4.88253C149.619 3.35712 150.352 2.12473 151.791 1.22844C152.782 0.607931 154.221 0.289062 156.083 0.289062H168.183V3.84836H157.505C155.945 3.84836 154.928 4.12414 154.575 4.65846C154.428 4.88254 154.256 5.4858 154.256 7.08016C154.256 7.68343 154.523 8.1402 155.074 8.4763C155.548 8.7607 156.367 8.89859 157.505 8.89859H161.805C163.684 8.89859 165.227 9.28641 166.364 10.0448C167.545 10.8291 168.14 11.958 168.14 13.3886V16.6032C168.14 18.1028 167.528 19.2662 166.321 20.0677C165.149 20.8433 163.537 21.2312 161.538 21.2312V21.2398Z" fill="white"/>
<path d="M96.7311 21.2404H92.1118V12.5447H80.5204V21.2404H75.8838V3.81447H80.5204V9.02845H92.1118V-15.6108H96.7311V21.2404Z" fill="white"/>
<path d="M75.8838 0.224483H80.528V10.957H75.8838V0.224483Z" fill="white"/>
</g>
</g>
</svg>
