<svg width="132" height="33" viewBox="0 0 132 33" fill="none" xmlns="http://www.w3.org/2000/svg">
<path d="M4.25684 32.3818L4.96582 30.3301H7.99512L8.7041 32.3818H9.96094L7.15723 24.6045H5.79297L3 32.3818H4.25684ZM5.3042 29.3418L6.44824 26.0225H6.50195L7.65137 29.3418H5.3042Z" fill="#898A8D"/>
<path d="M28.0577 27.1396H29.25C28.9869 25.4692 27.6817 24.4971 26.0381 24.4971C24.024 24.4971 22.5362 26.0063 22.5362 28.4932C22.5362 30.98 24.0132 32.4893 26.0381 32.4893C27.7515 32.4893 29.003 31.415 29.25 29.8789L28.0577 29.8682C27.8536 30.8618 27.0264 31.4097 26.0489 31.4043C24.7115 31.4097 23.7124 30.3892 23.7071 28.4932C23.7124 26.6079 24.7061 25.5767 26.0489 25.582C27.0371 25.5767 27.8697 26.1353 28.0577 27.1396Z" fill="#898A8D"/>
<path d="M43.3507 32.3818L44.0596 30.3301H47.0889L47.7979 32.3818H49.0548L46.2511 24.6045H44.8868L42.0938 32.3818H43.3507ZM44.398 29.3418L45.5421 26.0225H45.5958L46.7452 29.3418H44.398Z" fill="#898A8D"/>
<path d="M64.7775 32.3818C67.1461 32.3818 68.5104 30.9102 68.5157 28.4824C68.5104 26.0601 67.1461 24.6045 64.8527 24.6045H62.253V32.3818H64.7775ZM63.4347 31.3506V25.6357H64.7775C66.4747 25.6357 67.3448 26.6509 67.3448 28.4824C67.3448 30.3193 66.4747 31.3452 64.713 31.3506H63.4347Z" fill="#898A8D"/>
<path d="M82.0578 32.3818H86.9777V31.3613H83.2394V28.9873H86.6769V27.9775H83.2394V25.625H86.9347V24.6045H82.0578V32.3818Z" fill="#898A8D"/>
<path d="M100.595 24.6045V32.3818H101.723V26.7529H101.787L104.075 32.3711H105.01L107.287 26.7637H107.363V32.3818H108.49V24.6045H107.051L104.591 30.6309H104.494L102.034 24.6045H100.595Z" fill="#898A8D"/>
<path d="M121.689 24.6045L124.503 29.3311V32.3818H125.685V29.3311L128.51 24.6045H127.167L125.137 28.1279H125.051L123.031 24.6045H121.689Z" fill="#898A8D"/>
<mask id="mask0_322_8481" style="mask-type:alpha" maskUnits="userSpaceOnUse" x="0" y="0" width="132" height="17">
<rect width="131.63" height="16.8003" fill="#050505"/>
</mask>
<g mask="url(#mask0_322_8481)">
<path d="M11.1364 16.7707C10.4956 16.7707 9.96276 16.5954 9.5513 16.2379C9.29498 15.995 9.0454 15.6241 8.77559 15.0979L3.4873 4.88559V16.6965H0V2.58545C0 1.91093 0.269811 1.34432 0.795942 0.905878C1.31533 0.474181 2.03707 0.258333 2.93419 0.258333C4.31023 0.258333 5.26805 0.797953 5.78744 1.87045L11.096 12.5482L16.4989 1.85022C17.0385 0.770973 17.9896 0.224609 19.3184 0.224609C20.2425 0.224609 20.971 0.447202 21.4769 0.892389C21.9963 1.34432 22.2594 1.93116 22.2594 2.63267V16.6965H18.7721V4.89908L13.6119 15.0035C13.0319 16.1772 12.1954 16.7707 11.1297 16.7707H11.1364Z" fill="#050505"/>
<path d="M40.3507 16.6229H31.0692C29.4705 16.6229 28.2024 16.3396 27.2986 15.7797C26.2733 15.1322 25.7539 14.2013 25.7539 13.0209V4.04972C25.7539 2.87604 26.2126 1.93171 27.1232 1.25718C28.0068 0.596144 29.2412 0.265625 30.7791 0.265625H40.3507V3.05142H31.8988C29.3896 3.05142 29.3896 4.19811 29.3896 4.57585V7.0716H39.7301V9.82367H29.3896V12.2857C29.3896 12.6702 29.3896 13.8438 31.9326 13.8438H40.3574V16.6296L40.3507 16.6229Z" fill="#050505"/>
<path d="M52.0331 16.6227H48.4041V2.96353H43.0146V0.177734H57.4495V2.96353H52.0331V16.6227Z" fill="#050505"/>
<path d="M93.7921 16.6229H84.5106C82.912 16.6229 81.6438 16.3396 80.74 15.7797C79.7147 15.1322 79.1953 14.2013 79.1953 13.0209V4.04972C79.1953 2.87604 79.654 1.93171 80.5646 1.25718C81.4482 0.596144 82.6826 0.265625 84.2273 0.265625H93.7988V3.05142H85.347C82.8378 3.05142 82.8378 4.19811 82.8378 4.57585V7.0716H93.1782V9.82367H82.8378V12.2857C82.8378 12.6702 82.8378 13.8438 85.3807 13.8438H93.8056V16.6296L93.7921 16.6229Z" fill="#050505"/>
<path d="M108.525 16.6224H103.568C102.583 16.6224 101.874 16.5751 101.402 16.474C100.694 16.339 100.046 16.0625 99.4799 15.6375C98.8458 15.1586 98.4074 14.646 98.1915 14.1199C98.0499 13.7421 97.9824 13.1755 97.9824 12.3728V0.224609H101.611V11.9479C101.611 12.6899 101.794 13.1958 102.164 13.4386C102.562 13.7016 103.318 13.8366 104.411 13.8366H107.675C108.755 13.8366 109.503 13.7084 109.908 13.4521C110.279 13.216 110.468 12.7303 110.468 12.0153V0.231351H114.097V12.3796C114.097 13.1351 114.016 13.7084 113.861 14.1199C113.645 14.6797 113.227 15.1923 112.62 15.6375C112.019 16.0827 111.379 16.3728 110.711 16.5077C110.252 16.5886 109.537 16.6224 108.512 16.6224H108.525Z" fill="#050505"/>
<path d="M126.432 16.6224H117.137V13.8366H125.495C126.749 13.8366 127.532 13.6072 127.815 13.1485C127.882 13.0271 128.004 12.5819 128.004 11.1182C128.004 10.7742 128.004 9.72194 125.589 9.72194H122.223C120.793 9.72194 119.606 9.44539 118.682 8.89228C117.636 8.26497 117.104 7.39482 117.104 6.30209V3.81983C117.104 2.62592 117.677 1.66135 118.803 0.959841C119.579 0.474182 120.705 0.224609 122.162 0.224609H131.633V3.0104H123.275C122.055 3.0104 121.259 3.22625 120.982 3.64446C120.867 3.81984 120.732 4.292 120.732 5.53988C120.732 6.01205 120.942 6.36955 121.373 6.63261C121.744 6.85521 122.385 6.96313 123.275 6.96313H126.641C128.112 6.96313 129.319 7.26667 130.21 7.86025C131.134 8.47407 131.599 9.3577 131.599 10.4774V12.9934C131.599 14.1671 131.12 15.0777 130.176 15.705C129.258 16.3121 127.997 16.6156 126.432 16.6156V16.6224Z" fill="#050505"/>
<path d="M75.7094 16.624H72.0939V9.81804H63.0215V16.624H59.3926V2.98508H63.0215V7.06597H72.0939V-12.2188H75.7094V16.624Z" fill="#050505"/>
<path d="M59.3926 0.175265H63.0275V8.57539H59.3926V0.175265Z" fill="#050505"/>
</g>
</svg>
