<svg width="39" height="26" viewBox="0 0 39 26" fill="none" xmlns="http://www.w3.org/2000/svg">
<path d="M33.4277 23.1235H4.87317V23.777H33.4277V23.1235Z" fill="white"/>
<path d="M35.6017 24.0864H2.69702V24.7399H35.6017V24.0864Z" fill="white"/>
<path d="M38.3058 25.0449H-0.000244141V25.6984H38.3058V25.0449Z" fill="white"/>
<path d="M7.47583 10.1055V22.8167H10.2371V10.1055H7.47583ZM7.93038 10.7698H8.0843V22.1524H7.93038V10.77V10.7698ZM8.77981 22.1524V10.77H8.93317V22.1527H8.77981V22.1524ZM9.78259 22.1524H9.62923V10.77H9.78259V22.1527V22.1524Z" fill="white"/>
<path d="M10.8942 22.1519H6.82141V22.8161H10.8942V22.1519Z" fill="white"/>
<path d="M10.894 10.1055H6.82129V10.7698H10.894V10.1055Z" fill="white"/>
<path d="M14.3405 10.1045V22.8157H17.1018V10.1045H14.3405ZM14.795 10.7688H14.9489V22.1514H14.795V10.7691V10.7688ZM15.6444 22.1514V10.7691H15.7978V22.1517H15.6444V22.1514ZM16.6472 22.1514H16.4939V10.7691H16.6472V22.1517V22.1514Z" fill="white"/>
<path d="M17.7589 22.1514H13.6862V22.8157H17.7589V22.1514Z" fill="white"/>
<path d="M17.759 10.1045H13.6863V10.7688H17.759V10.1045Z" fill="white"/>
<path d="M21.2057 10.106V22.8172H23.967V10.106H21.2057ZM21.6602 10.7702H21.8142V22.1529H21.6602V10.7705V10.7702ZM22.5097 22.1529V10.7705H22.663V22.1531H22.5097V22.1529ZM23.5124 22.1529H23.3591V10.7705H23.5124V22.1531V22.1529Z" fill="white"/>
<path d="M24.6227 22.1523H20.5494V22.8166H24.6227V22.1523Z" fill="white"/>
<path d="M24.6226 10.106H20.5493V10.7702H24.6226V10.106Z" fill="white"/>
<path d="M28.0721 10.1055V22.8167H30.8335V10.1055H28.0721ZM28.5267 10.7698H28.6806V22.1524H28.5267V10.77V10.7698ZM29.3761 22.1524V10.77H29.5295V22.1527H29.3761V22.1524ZM30.3789 22.1524H30.2255V10.77H30.3789V22.1527V22.1524Z" fill="white"/>
<path d="M31.4892 22.1523H27.4159V22.8166H31.4892V22.1523Z" fill="white"/>
<path d="M31.4894 10.1055H27.4161V10.7698H31.4894V10.1055Z" fill="white"/>
<path d="M34.6299 7.96505H3.67688V6.63289L19.1533 0L34.6299 6.63317V7.96533V7.96505ZM4.03776 7.6039H34.2688V6.87109L19.1533 0.392933L4.03776 6.87109V7.6039Z" fill="white"/>
<path d="M19.1514 0.740234L4.35205 7.07276V7.28747H33.9511V7.07276L19.1514 0.740234ZM19.1514 4.50018C18.6339 4.50018 18.2136 4.08044 18.2136 3.56234C18.2136 3.04423 18.6339 2.62449 19.1514 2.62449C19.669 2.62449 20.0893 3.04478 20.0893 3.56234C20.0893 4.07989 19.669 4.50018 19.1514 4.50018Z" fill="white"/>
<path d="M33.0463 8.27686H5.25195V9.79802H33.0463V8.27686Z" fill="white"/>
</svg>
